<?xml version="1.0" encoding="UTF-8"?>
<svg id="Camada_2" data-name="Camada 2" xmlns="http://www.w3.org/2000/svg" viewBox="0 0 599.8 96.61">
  <defs>
    <style>
      .cls-1 {
        fill: #fff;
        stroke-width: 0px;
      }
    </style>
  </defs>
  <g id="Camada_1-2" data-name="Camada 1">
    <g>
      <rect class="cls-1" x="0" width="15.56" height="49.02"/>
      <rect class="cls-1" x="0" y="56.02" width="15.56" height="7.42"/>
      <rect class="cls-1" x="24.23" y="20.98" width="15.57" height="28.04"/>
      <rect class="cls-1" x="48.47" y="28" width="15.56" height="21"/>
      <polygon class="cls-1" points="72.7 71.61 72.7 78.61 15.56 78.61 15.56 71.61 64.03 71.61 64.03 56.02 39.8 56.02 24.23 56.02 0 56.02 0 71.61 0 71.61 0 78.61 0 94.17 88.26 94.17 88.26 78.61 88.26 71.61 72.7 71.61"/>
      <rect class="cls-1" x="72.7" y="35.01" width="15.56" height="14.01"/>
    </g>
    <g>
      <path class="cls-1" d="M193.36,35.03h14v31.56c0,5.88-1.5,11.09-4.49,15.62-2.99,4.53-7.11,8.07-12.34,10.6-5.23,2.53-11.08,3.8-17.56,3.8s-12.48-1.27-18-3.8c-5.53-2.54-9.94-6.08-13.23-10.64-3.29-4.56-4.96-9.72-5.02-15.5v-31.64h14.08v32.21c0,4.37,1.24,7.88,3.72,10.52,2.48,2.64,5.42,4.52,8.82,5.62s6.63,1.66,9.71,1.66c2.8,0,5.77-.55,8.9-1.66,3.13-1.11,5.81-2.98,8.05-5.62,2.24-2.64,3.36-6.15,3.36-10.52v-32.21Z"/>
      <path class="cls-1" d="M272.74,77.51v-42.48h13.67v59.88h-13.67l-43.45-42.56v42.56h-13.68v-59.88h13.68l43.45,42.48ZM229.29,94.91h-13.68v-59.88l13.68,59.88Z"/>
      <path class="cls-1" d="M367.49,94.91h-8.58l-1.7-7.04c-3.34,2.75-7.27,4.88-11.77,6.39-4.5,1.51-9.32,2.27-14.44,2.27-7.01,0-13.38-1.38-19.1-4.13-5.72-2.75-10.21-6.53-13.47-11.33-3.26-4.8-4.9-10.14-4.9-16.02s1.67-11.37,5.02-16.14c3.34-4.77,7.88-8.52,13.59-11.25,5.72-2.72,12-4.09,18.85-4.09,5.39,0,10.56.85,15.5,2.55,4.94,1.7,9.21,4.28,12.83,7.73,3.61,3.45,6.09,7.69,7.44,12.7l-14.4.08c-1.62-3.94-4.48-6.89-8.58-8.86-4.1-1.97-8.33-2.95-12.7-2.95s-8.32.82-11.85,2.47c-3.53,1.65-6.31,4.01-8.33,7.08-2.02,3.07-3.03,6.63-3.03,10.68,0,4.26,1.05,7.92,3.16,10.96,2.1,3.05,4.92,5.37,8.46,6.96,3.53,1.59,7.4,2.39,11.61,2.39s8.48-.96,12.34-2.87c3.86-1.91,6.78-4.76,8.78-8.54h-20.39v-9.06h35.44v6.23l.24,23.79Z"/>
      <path class="cls-1" d="M449.79,94.91h-14.24l-6.88-12.7h-37.79l-6.88,12.7h-14.24l32.45-59.88h15.13l32.45,59.88ZM409.81,47.33l-12.95,23.79h25.81l-12.87-23.79Z"/>
      <path class="cls-1" d="M510.8,77.51v-42.48h13.67v59.88h-13.67l-43.45-42.56v42.56h-13.68v-59.88h13.68l43.45,42.48ZM467.34,94.91h-13.68v-59.88l13.68,59.88Z"/>
      <path class="cls-1" d="M599.8,35.03v11.65h-26.86v48.23h-13.67v-48.23h-27.27v-11.65h67.81ZM532,46.44v-11.41h67.81l-67.81,11.41Z"/>
    </g>
  </g>
</svg>